<?xml version="1.0" encoding="utf-8"?>
<!-- Generator: Adobe Illustrator 21.1.0, SVG Export Plug-In . SVG Version: 6.00 Build 0)  -->
<svg version="1.1" id="Layer_1" xmlns="http://www.w3.org/2000/svg" xmlns:xlink="http://www.w3.org/1999/xlink" x="0px" y="0px"
	 viewBox="0 0 512 512" style="enable-background:new 0 0 512 512;" xml:space="preserve">
<style type="text/css">
	.st0{fill:#FFFFFF;}
</style>
<title>Artboard 3</title>
<path class="st0" d="M372.7,126.2l-16.7,25c57.9,46.9,66.8,131.8,19.9,189.7c-5.9,7.3-12.6,14-19.9,19.9l16.7,25
	c71.7-56,84.4-159.4,28.4-231.1C392.8,144.1,383.3,134.5,372.7,126.2L372.7,126.2z M339.2,176.3l-16.8,25.2
	c30.1,28.1,31.7,75.3,3.6,105.4c-1.2,1.3-2.4,2.5-3.6,3.6l16.8,25.2c44-37.6,49.2-103.8,11.6-147.8
	C347.3,183.7,343.4,179.8,339.2,176.3L339.2,176.3z M256,91c-17.7,0-23,10.3-23,10.3s-45.9,50.5-77.5,72.7c-5.8,3.7-12.2,7-23.5,7
	H106c-16.6,0-30,13.4-30,30l0,0v90c0,16.6,13.4,30,30,30l0,0h26c11.3,0,17.7,3.3,23.5,7c31.6,22.3,77.5,72.8,77.5,72.8
	s5.3,10.2,23,10.2c16.6,0,30-13.4,30-30l0,0V121C286,104.4,272.6,91,256,91z"/>
</svg>
